<svg xmlns="http://www.w3.org/2000/svg" width="48" height="48" viewBox="0 0 48 48"><style>.icon { display: none; }.icon:target { display: inline; }</style>
     <g id="arrow-left-darkest" class="icon" style="fill: #1a1a1a;" >
        <path d="M1.5 24l22.5 22.5v-13.5h24v-18h-24v-13.5z"/>
    </g>
    <g id="arrow-up-light" class="icon" style="fill: #ffffff;" >
        <path d="M24 1.5l-22.5 22.5h13.5v24h18v-24h13.5z"/>
    </g>
    <g id="search-darkest" class="icon" style="fill: #1a1a1a; stroke: #1a1a1a;">
        <path d="M46.512 40.847l-11.37-9.67c-1.175-1.058-2.432-1.543-3.448-1.497 2.684-3.144 4.305-7.222 4.305-11.68 0-9.941-8.059-18-18-18s-18 8.059-18 18 8.059 18 18 18c4.458 0 8.536-1.621 11.68-4.305-0.047 1.015 0.439 2.272 1.497 3.448l9.67 11.37c1.656 1.84 4.36 1.995 6.010 0.345s1.495-4.355-0.345-6.010zM18 30c-6.627 0-12-5.373-12-12s5.373-12 12-12 12 5.373 12 12-5.373 12-12 12z"/>
    </g>
    <g id="search-dark" class="icon" style="fill: #8c8c8c; stroke: #8c8c8c;">
        <path d="M46.512 40.847l-11.37-9.67c-1.175-1.058-2.432-1.543-3.448-1.497 2.684-3.144 4.305-7.222 4.305-11.68 0-9.941-8.059-18-18-18s-18 8.059-18 18 8.059 18 18 18c4.458 0 8.536-1.621 11.68-4.305-0.047 1.015 0.439 2.272 1.497 3.448l9.67 11.37c1.656 1.84 4.36 1.995 6.010 0.345s1.495-4.355-0.345-6.010zM18 30c-6.627 0-12-5.373-12-12s5.373-12 12-12 12 5.373 12 12-5.373 12-12 12z"/>
    </g>
</svg>