<?xml version="1.0" standalone="no"?>
<!DOCTYPE svg PUBLIC "-//W3C//DTD SVG 20010904//EN"
 "http://www.w3.org/TR/2001/REC-SVG-20010904/DTD/svg10.dtd">
<svg version="1.0" xmlns="http://www.w3.org/2000/svg"
 width="305.000000pt" height="305.000000pt" viewBox="0 0 305.000000 305.000000"
 preserveAspectRatio="xMidYMid meet">
<metadata>
Created by potrace 1.14, written by Peter Selinger 2001-2017
</metadata>
<g transform="translate(0.000000,305.000000) scale(0.100000,-0.100000)"
fill="#000000" stroke="none">
<path d="M0 1525 l0 -1525 1525 0 1525 0 0 1525 0 1525 -1525 0 -1525 0 0
-1525z m1545 1012 c0 -134 38 -195 194 -310 52 -39 107 -83 122 -100 l27 -30
131 52 c145 59 199 90 254 147 l37 38 0 -86 c0 -129 -18 -233 -55 -325 -18
-45 -30 -84 -27 -87 3 -3 43 -6 89 -6 l83 0 0 -34 c0 -30 -4 -35 -27 -38 -23
-2 -29 -9 -35 -42 -5 -22 -13 -45 -19 -53 -9 -11 7 -13 90 -13 l101 0 0 -35 0
-35 -997 2 -998 3 0 30 0 30 112 3 112 3 -9 25 c-6 14 -10 39 -10 55 0 28 -1
29 -50 29 l-50 0 0 35 0 35 69 0 69 0 7 31 c6 27 66 96 118 137 9 7 17 25 17
40 1 78 84 171 179 199 90 26 222 0 285 -55 19 -16 19 -16 11 3 -4 11 -10 54
-12 95 -5 64 -2 85 18 130 39 94 126 208 159 210 3 0 5 -37 5 -83z m921 -1068
c-22 -270 -116 -469 -315 -670 -138 -139 -281 -223 -457 -270 -118 -31 -280
-29 -397 5 -164 49 -305 134 -437 266 -190 190 -279 388 -306 678 l-7 72 963
0 963 0 -7 -81z"/>
<path d="M1454 2404 c-24 -85 -14 -147 49 -279 45 -95 52 -118 52 -170 0 -33
-4 -75 -8 -92 l-9 -33 61 0 c48 0 61 3 61 15 0 19 36 91 61 124 11 13 19 28
19 33 0 6 -30 41 -67 79 -36 38 -63 69 -59 69 14 0 92 -54 128 -88 31 -30 40
-33 53 -22 8 7 15 18 15 24 0 16 -58 70 -153 140 -85 64 -129 120 -156 197
-10 27 -20 52 -24 55 -3 3 -13 -20 -23 -52z"/>
<path d="M2200 2171 c-25 -15 -99 -49 -165 -75 -144 -57 -215 -96 -250 -138
-28 -33 -65 -100 -65 -118 0 -6 24 -10 55 -10 43 0 55 3 55 15 0 9 9 34 20 55
22 44 56 64 163 100 38 12 84 36 103 52 19 17 37 28 40 25 10 -10 -7 -48 -38
-83 -42 -47 -33 -64 28 -53 58 11 68 19 82 66 11 38 28 193 21 193 -2 0 -24
-13 -49 -29z"/>
<path d="M1092 2168 c-27 -6 -55 -22 -77 -44 -42 -42 -46 -63 -7 -35 44 31
114 44 200 38 42 -3 86 -8 97 -12 18 -6 17 -4 -3 14 -26 22 -112 52 -146 50
-12 -1 -40 -5 -64 -11z"/>
<path d="M1410 2072 c0 -11 7 -26 17 -33 9 -8 25 -27 35 -44 18 -27 19 -28 13
-5 -11 37 -32 75 -49 89 -14 12 -16 10 -16 -7z"/>
<path d="M1110 2051 c-19 -4 -43 -12 -54 -18 -16 -9 -12 -11 25 -17 88 -13
174 -80 200 -156 11 -30 12 -30 84 -30 41 0 77 4 80 10 11 17 -37 109 -73 141
-66 58 -178 88 -262 70z"/>
<path d="M2015 1965 c-83 -25 -124 -56 -144 -108 l-11 -27 73 0 c69 0 73 1 84
28 16 35 43 116 40 118 -1 1 -20 -4 -42 -11z"/>
<path d="M941 1945 c-43 -13 -121 -78 -121 -100 0 -8 61 -12 195 -14 125 -2
195 1 195 7 0 19 -53 73 -90 92 -52 26 -126 33 -179 15z"/>
<path d="M2133 1910 c-59 -6 -56 -4 -71 -47 l-11 -33 63 0 63 0 7 41 c4 23 5
42 4 43 -2 1 -26 -1 -55 -4z"/>
<path d="M784 1728 c4 -18 16 -42 27 -53 19 -20 34 -20 712 -23 514 -2 698 0
714 9 21 11 53 64 53 88 0 8 -213 11 -756 11 l-756 0 6 -32z"/>
<path d="M630 1461 c0 -49 30 -190 56 -262 48 -134 121 -243 238 -359 229
-226 512 -312 771 -235 101 29 232 96 316 161 133 102 263 275 316 421 29 79
62 224 63 271 l0 32 -880 0 -880 0 0 -29z m1070 -216 l184 -185 -156 -157
c-85 -87 -169 -173 -185 -192 l-29 -33 -184 186 c-102 103 -186 191 -188 196
-4 11 347 370 362 370 6 0 94 -83 196 -185z m-440 135 l0 -30 -295 0 -295 0 0
30 0 30 295 0 295 0 0 -30z m1070 0 l0 -30 -313 0 -314 0 3 28 c1 15 2 28 3
30 1 1 141 2 311 2 l310 0 0 -30z"/>
<path d="M1350 1208 l-150 -153 150 -147 c82 -82 154 -148 160 -148 12 0 300
290 300 302 0 4 -21 24 -46 45 -26 21 -61 53 -78 72 -48 54 -113 119 -151 153
l-35 30 -150 -154z m323 -37 c31 -31 57 -59 57 -64 0 -12 -97 -99 -129 -116
-14 -8 -30 -20 -34 -28 -5 -7 -12 -11 -18 -8 -5 4 -9 -10 -9 -29 0 -20 4 -36
8 -36 10 0 176 169 188 193 9 15 12 15 29 3 18 -13 17 -16 -29 -71 -82 -95
-198 -205 -225 -212 -22 -5 -40 9 -153 126 -70 73 -128 137 -128 142 0 5 6 12
14 15 9 3 48 -30 103 -87 48 -51 96 -101 106 -111 10 -10 22 -16 27 -13 15 10
12 83 -5 109 -15 22 -14 24 4 29 11 2 32 -1 47 -9 29 -16 54 -18 54 -6 0 4
-15 23 -34 41 l-35 34 -33 -28 c-18 -15 -37 -34 -41 -41 -4 -8 -15 -14 -23
-14 -18 0 -124 98 -124 115 0 7 33 43 73 81 68 65 72 68 75 44 4 -27 26 -56
55 -72 38 -20 103 75 67 97 -5 3 -10 11 -10 17 0 12 26 -10 123 -101z"/>
<path d="M1372 1143 c-27 -33 -27 -34 -3 -61 24 -28 34 -28 66 4 l26 26 -27
29 c-15 16 -31 29 -34 29 -3 0 -16 -12 -28 -27z"/>
<path d="M1576 1139 l-28 -31 31 -31 31 -32 32 32 32 33 -29 30 c-16 16 -32
30 -35 30 -4 0 -19 -14 -34 -31z"/>
</g>
</svg>
